pedal_clip_forces_x_-0.11_y_-0.06.mot
version=1
nRows=249
nColumns=4
inDegrees=yes
endheader
time	PedalClip_calcn_r_Fx	PedalClip_calcn_r_Fy	PedalClip_calcn_r_Fz
0.42510631	-91.9161538011456	91.7924771519817	0
0.42557366	-91.7141967878106	91.0064119841423	0
0.4256204	-91.5135758486088	90.221906095725	0
0.42579248	-91.3143333667012	89.4391992196123	0
0.42619823	-91.1164931568542	88.6584517523512	0
0.42658151	-90.9200650043969	87.8797495863015	0
0.42661984	-90.7250590287651	87.1031974302973	0
0.42666765	-90.5314947715908	86.3289661014622	0
0.42690669	-90.3393985655288	85.5572173774122	0
0.42713567	-90.1487843316345	84.7880748417451	0
0.42776946	-89.9596620916204	84.0216500084071	0
0.42783284	-89.772027747584	83.2579884357825	0
0.42789622	-89.5858495633526	82.4970611696051	0
0.42802011	-89.4010800620326	81.7388196212069	0
0.42830649	-89.2176501842026	80.9831646761549	0
0.42900186	-89.035497585405	80.2299922596047	0
0.42907139	-88.854586018854	79.4792093423273	0
0.42914093	-88.6749037003415	78.7307702873948	0
0.42948861	-88.4964235733248	77.9846301510479	0
0.42992297	-88.319103461966	77.2407395958041	0
0.4299664	-88.1429040795861	76.4990856565262	0
0.43002782	-87.9678074365523	75.7596919254863	0
0.43033494	-87.7937793003332	75.0225773665501	0
0.43063021	-87.6207755548277	74.2877616803846	0
0.4311116	-87.4487503787518	73.5552672532123	0
0.43115974	-87.277686084025	72.8252481947101	0
0.43133566	-87.1075692304968	72.0978970823887	0
0.43175163	-86.9383670662493	71.3732672260032	0
0.43214154	-86.7700339136808	70.6512866272553	0
0.43218053	-86.6025358292517	69.9318768039256	0
0.43222984	-86.4358704876987	69.2150468330854	0
0.43247639	-86.2700466931731	68.5008375958313	0
0.43270612	-86.1050799356934	67.7892422526138	0
0.43334935	-85.9409780797323	67.0801880978712	0
0.43342926	-85.7777385935306	66.3735476100377	0
0.43363959	-85.6153471758249	65.6691149039097	0
0.43376474	-85.4537918657953	64.9665616044946	0
0.43404775	-85.2930668619726	64.2655366719004	0
0.43454383	-85.1331521480057	63.5657377915701	0
0.43459344	-84.9740269002957	62.8669583341789	0
0.43479216	-84.8156820376772	62.1690869600353	0
0.43520493	-84.6581183631593	61.4720804509461	0
0.43560658	-84.5013356977636	60.7759117582517	0
0.43564674	-84.3453091396085	60.0805107182936	0
0.43569971	-84.1899890924073	59.385750312487	0
0.43596454	-84.0353189292361	58.6914861453638	0
0.43620029	-83.8812632999138	57.9976255524452	0
0.43685315	-83.7278106611606	57.3041571815242	0
0.43691843	-83.5749347387023	56.6110078825162	0
0.4370126	-83.4225928755701	55.9180021290056	0
0.43748342	-83.2707298228223	55.2248482944587	0
0.43787633	-83.1193042470919	54.5312699053779	0
0.43791563	-82.9683083947445	53.8371304605392	0
0.43796518	-82.8177433269396	53.1423712192479	0
0.43821294	-82.6676093551989	52.4469283685737	0
0.43844919	-82.5179111917861	51.7507224078178	0
0.43909925	-82.3686706263524	51.053733641284	0
0.43936371	-82.2198916081934	50.3559562256026	0
0.43952631	-82.0715697487509	49.6573608023249	0
0.43987431	-81.9237049776028	48.9578880014717	0
0.44031991	-81.776320942127	48.257600170556	0
0.44036447	-81.6294543105422	47.5567127686416	0
0.44043743	-81.4831349791	46.8554380821178	0
0.4408022	-81.3373844708376	46.1539254948881	0
0.44162562	-81.1922200402102	45.4521848096725	0
0.44173372	-81.0476593105265	44.7501159607429	0
0.44215821	-80.9037335334645	44.0476250820063	0
0.44220066	-80.7604855015868	43.3446968691465	0
0.44236641	-80.6179759295188	42.641448019516	0
0.4428481	-80.4762756579794	41.9380676087915	0
0.44325104	-80.3354756226803	41.2348755706349	0
0.44329134	-80.1956621993193	40.5322387340836	0
0.44334601	-80.0569070248688	39.8304613109089	0
0.44361938	-79.9192444833703	39.1296881960158	0
0.44388365	-79.7827001939989	38.430028342852	0
0.44453308	-79.6473089682175	37.7316621693229	0
0.44459803	-79.5131031890731	37.0348445971229	0
0.44470201	-79.3801046243121	36.3398635948393	0
0.44498539	-79.2483193713942	35.647015200675	0
0.44522027	-79.1177535873831	34.9565413241339	0
0.44589338	-78.9883962865502	34.2685596415677	0
0.44607321	-78.8602316600755	33.5831300473998	0
0.44690445	-78.7332442522821	32.9002837162183	0
0.44704747	-78.6074255613539	32.2200643512389	0
0.44738081	-78.4827669461257	31.542489580123	0
0.44785797	-78.3592575193397	30.8675553200111	0
0.44825166	-78.2368691036307	30.1952167820222	0
0.44829103	-78.1155833000215	29.5254632471722	0
0.44835233	-77.9954014735706	28.8583572780995	0
0.44865884	-77.8763514487122	28.1940021463938	0
0.44893174	-77.7584533711737	27.5324258662861	0
0.44959796	-77.6416953979523	26.8735754011432	0
0.44966458	-77.5260580757789	26.2174561785254	0
0.44979451	-77.4115406792873	25.5641436772314	0
0.45009041	-77.2981431832772	24.9136454589686	0
0.45034807	-77.1858457628611	24.2659069020016	0
0.4510461	-77.0746163859985	23.6208343421779	0
0.4511159	-76.9644362436567	22.9784056679418	0
0.4511857	-76.8553104445652	22.3386918815271	0
0.45131768	-76.747240876098	21.7017910212032	0
0.45166109	-76.6402264709555	21.067827905815	0
0.45241452	-76.5342698303389	20.4369338394826	0
0.45248986	-76.4293986756918	19.8092634562637	0
0.4525652	-76.3256360673476	19.1849151380568	0
0.45294191	-76.222981437406	18.5638441850741	0
0.45342353	-76.1214270057038	17.9458711283325	0
0.4534717	-76.0209456226189	17.3307781664559	0
0.45363787	-75.9215000160322	16.7183803992141	0
0.45411149	-75.8230465723255	16.1084960778431	0
0.45452351	-75.7255554923656	15.5010243757524	0
0.45456471	-75.6290135334848	14.8959376816755	0
0.45462319	-75.5334106120645	14.2931874301489	0
0.45491561	-75.4387229593762	13.692672099643	0
0.45516936	-75.3449130214746	13.0942452162148	0
0.45586459	-75.2519293947263	12.4977293144296	0
0.45611113	-75.159716493607	11.9029507841762	0
0.45675577	-75.0682282728085	11.3097226284726	0
0.45710709	-74.9774337441399	10.7178927457527	0
0.4575315	-74.887309304429	10.1273530374264	0
0.45781137	-74.797835984865	9.53803103732765	0
0.45844229	-74.7089897438488	8.94980823157633	0
0.45885397	-74.6207698024702	8.36261417630347	0
0.45889513	-74.5331877325079	7.7764779215443	0
0.45895004	-74.446254421404	7.1914187908184	0
0.45922458	-74.3599875898473	6.60750550828605	0
0.459512	-74.2744229843905	6.02490008244828	0
0.46020154	-74.1896088877233	5.44379192986662	0
0.46027049	-74.1055912523978	4.86432205073674	0
0.46033945	-74.0224069511745	4.2866102442615	0
0.46052514	-73.9400828632579	3.71076406177814	0
0.46083219	-73.8586353245415	3.13683706392743	0
0.46145199	-73.7780688620948	2.56477729633057	0
0.46178984	-73.6983804354469	1.9944792016242	0
0.46222807	-73.6195571493515	1.42577893451232	0
0.46270331	-73.5415770309242	0.858450305928896	0
0.46317856	-73.4644116361783	0.292196719091286	0
0.46341906	-73.3880444496016	-0.27331343343639	0
0.46365956	-73.31247422789	-0.838338842888046	0
0.46408205	-73.2376833459378	-1.4031289526717	0
0.46458238	-73.1636434515097	-1.96798360359314	0
0.46463241	-73.090313142473	-2.53327344405477	0
0.46477071	-73.0176498642088	-3.09938826350599	0
0.46521417	-72.9456196433122	-3.66671476679061	0
0.46570817	-72.874168994207	-4.23558547017365	0
0.4657716	-72.8032291328878	-4.80637984400271	0
0.46588438	-72.7327316554143	-5.37954918287279	0
0.4664483	-72.6626293350811	-5.95549433772389	0
0.46687956	-72.592903746839	-6.53441810949055	0
0.46692268	-72.5235322469952	-7.11637697658243	0
0.46699718	-72.4544945153066	-7.70142270351126	0
0.46736965	-72.3857732325155	-8.28965610019929	0
0.46766781	-72.3173477679898	-8.88129681848369	0
0.4682799	-72.2491989082555	-9.47657123543972	0
0.46889199	-72.1813002630315	-10.0755510939341	0
0.4693242	-72.113637904832	-10.6782850738463	0
0.46936742	-72.0462227199918	-11.2847304477194	0
0.46942331	-71.9790763680545	-11.8946511589349	0
0.46970276	-71.9122179334423	-12.5077849511931	0
0.47006433	-71.8456686941836	-13.1239983812572	0
0.47059548	-71.7794680950796	-13.7433299531537	0
0.47068685	-71.7136875583712	-14.3658002430426	0
0.47086016	-71.6483982566267	-14.9911999562095	0
0.47117681	-71.5836734116459	-15.6193901549163	0
0.4717089	-71.5195864726779	-16.2502903498073	0
0.47210937	-71.4562047815493	-16.8837811818882	0
0.47259538	-71.3935755814109	-17.5195917489294	0
0.47308138	-71.3317374554858	-18.1575709805505	0
0.4737049	-71.2707232002733	-18.7976054377553	0
0.47409985	-71.2105608955876	-19.4394873577863	0
0.47449481	-71.1512744443099	-20.0828141749866	0
0.47488976	-71.0928749836855	-20.7268930871073	0
0.47537806	-71.0353835664733	-21.3710192596987	0
0.47586636	-70.9788391956798	-22.014520580179	0
0.47645266	-70.9232613503119	-22.6567458214454	0
0.47684755	-70.8686662439571	-23.2972059770278	0
0.47733658	-70.8150734015025	-23.9354320117716	0
0.47782561	-70.7625033322095	-24.5708354706407	0
0.47832089	-70.7109959364861	-25.2029086604675	0
0.47881617	-70.6605893656375	-25.8313723885083	0
0.47931145	-70.6113176977412	-26.4560866461221	0
0.47980673	-70.5632044355081	-27.0770464027446	0
0.48030201	-70.5162629514763	-27.6942878085937	0
0.48079729	-70.4705037602861	-28.307782046873	0
0.48129257	-70.4259386753662	-28.917486351083	0
0.48178785	-70.3825761542438	-29.5232395743152	0
0.48227975	-70.3404240395779	-30.1248632555961	0
0.48277165	-70.2994695629917	-30.7222855516713	0
0.48326355	-70.2596882128056	-31.3153395459707	0
0.48375545	-70.2210504163376	-31.9036696783282	0
0.48424735	-70.1835358455037	-32.4869382033564	0
0.48473926	-70.1471381282191	-33.0649586513996	0
0.48527091	-70.1118423616776	-33.6376275485026	0
0.48580256	-70.0776221972488	-34.2047764798367	0
0.48585572	-70.0444502625001	-34.7660908784779	0
0.48595017	-70.0123107811107	-35.3213400157752	0
0.48642238	-69.9811794323205	-35.87044036564	0
0.48684462	-69.9510170867113	-36.4134011779743	0
0.48726686	-69.9217769139467	-36.9502618670881	0
0.48768489	-69.8934171897662	-37.4812041132698	0
0.48824151	-69.8658924814582	-38.0064585913946	0
0.48854033	-69.8391512933404	-38.5262303871704	0
0.48904143	-69.8131352946258	-39.0406895805966	0
0.48954252	-69.7877878954497	-39.5499575602251	0
0.48993317	-69.763053336008	-40.0541217208245	0
0.49048252	-69.7388654709582	-40.5533375731966	0
0.49103187	-69.7151680916215	-41.0478474357324	0
0.49108681	-69.6918986679677	-41.5379621419228	0
0.49122637	-69.6689859226129	-42.0240037318153	0
0.49168325	-69.6463534104996	-42.5062877434618	0
0.49211587	-69.6239334437053	-42.9850480707876	0
0.49254849	-69.6016743062263	-43.4604025081823	0
0.49296726	-69.5795270929049	-43.9324108195217	0
0.49351594	-69.5574448131159	-44.4011010375045	0
0.49392546	-69.5353876089493	-44.8664805206633	0
0.49433498	-69.513328834094	-45.3285487909877	0
0.49476839	-69.491254414413	-45.7873242608041	0
0.49529855	-69.469155624129	-46.2428529755892	0
0.49582871	-69.4470210887653	-46.6951677376458	0
0.49622215	-69.4248402749467	-47.1443281948767	0
0.49661558	-69.4026210794026	-47.5903639598302	0
0.49703686	-69.3803811467971	-48.0332462161125	0
0.49744351	-69.3581398520324	-48.4729164600665	0
0.49785015	-69.3359191764226	-48.9093220581408	0
0.49829029	-69.313735588106	-49.3423977575806	0
0.49887319	-69.2916070913871	-49.7720865057659	0
0.49945609	-69.2695626515181	-50.1983115965112	0
0.49993064	-69.2476353536425	-50.6209951419063	0
0.50040519	-69.2258482653309	-51.0400592960603	0
0.50087358	-69.2042150199547	-51.4554619682813	0
0.50134197	-69.1827458490846	-51.8671849872043	0
0.50181036	-69.1614487037798	-52.2752262355363	0
0.50227876	-69.1403321568365	-52.6795817765734	0
0.50274715	-69.119404991159	-53.0802431754934	0
0.50321554	-69.0986725205684	-53.4772120856091	0
0.50368394	-69.0781378283147	-53.8704862353658	0
0.50413008	-69.0577980068409	-54.2600767629421	0
0.50457622	-69.0376537158566	-54.6459729979416	0
0.50502236	-69.0177088359661	-55.028143708778	0
0.5054685	-68.997962728997	-55.4065634518585	0
0.50591464	-68.9784196341454	-55.7811834351964	0
0.50636078	-68.9590890628025	-56.1519185091681	0
0.50680693	-68.9399871865617	-56.5186342069459	0
0.50725307	-68.9211395796894	-56.8811732614118	0
0.50769921	-68.9025488002378	-57.2394501016849	0
0.50814535	-68.8842012387878	-57.5934541526504	0
0.50859149	-68.8660808942632	-57.9431933349117	0
0.50903763	-68.8481639490501	-58.2887220840245	0
0.50948377	-68.8304383671223	-58.6300822729531	0
0.50992992	-68.8128881523172	-58.9673250822768	0
